<?xml version="1.0" standalone="no"?><!DOCTYPE svg PUBLIC "-//W3C//DTD SVG 1.1//EN" "http://www.w3.org/Graphics/SVG/1.1/DTD/svg11.dtd"><svg t="1629189903712" class="icon" viewBox="0 0 1024 1024" version="1.1" xmlns="http://www.w3.org/2000/svg" p-id="1645" xmlns:xlink="http://www.w3.org/1999/xlink" width="128" height="128"><defs><style type="text/css"></style></defs><path d="M174.932822 366.269209c-56.798497 28.198169-107.147108 72.178758-147.431523 124.573978-9.405188 12.206995-9.409282 30.125051 0 42.333069 40.288508 52.396243 90.628932 96.364552 147.427429 124.566815-16.012663-46.376144-24.421154-95.534652-24.421153-145.741024 0.00307-50.205348 8.40849-99.360787 24.421153-145.729768l0.004094-0.00307z m263.634872-98.929976a400.542735 400.542735 0 0 0-57.720494 4.196571 336.048991 336.048991 0 0 0-12.862933 12.188575c-30.680705 30.673542-54.496063 66.650869-70.547612 105.807603 34.25613-39.426886 84.794052-64.355598 141.132062-64.355598 103.194084-0.004093 186.869665 83.651021 186.869665 186.839989 0 103.179758-83.679674 186.828732-186.869665 186.828732-56.33801 0-106.83807-24.921549-141.0942-64.332062 16.054619 39.137291 39.824951 75.097222 70.471887 105.762578a364.350514 364.350514 0 0 0 12.900796 12.195738 400.657345 400.657345 0 0 0 57.720494 4.197594c154.576232-0.004093 293.629964-90.13877 390.252388-215.799496 12.830187-16.649159 12.826094-41.070312 0-57.710261-96.619355-125.669936-235.680249-215.819962-390.252388-215.819963z m0 137.913771c58.950506 0 106.759276 47.797514 106.759276 106.763369 0 58.955622-47.81184 106.757229-106.759276 106.757229-58.985298 0-106.759276-47.801607-106.759276-106.757229 0-14.555478 2.918463-28.423296 8.178247-41.062126 5.146197 24.07323 26.575209 42.130455 52.189535 42.130455 29.454787 0 53.382708-23.904385 53.382708-53.384754 0-23.37636-15.053827-43.24074-35.985514-50.464244 9.215877-2.599193 18.93215-3.97963 28.9943-3.97963v-0.00307z" fill="#ffffff" p-id="1646"></path><path d="M596.251701 150.765447c-199.504401 0-361.258088 161.728105-361.258089 361.2366 0 199.504401 161.749594 361.228413 361.258089 361.228412 199.505424 0 361.21818-161.715825 361.218179-361.228412 0.004093-199.512587-161.716849-361.232506-361.218179-361.232506v-0.004094z m0-46.080409c224.929416 0 407.301659 182.369173 407.301659 407.317009 0.004093 224.951929-182.377359 407.313939-407.301659 407.313938-224.965232 0-407.342591-182.36201-407.342591-407.313938 0.004093-224.950905 182.378383-407.317008 407.342591-407.317009z" fill="#ffffff" p-id="1647"></path></svg>