<?xml version="1.0" standalone="no"?><!DOCTYPE svg PUBLIC "-//W3C//DTD SVG 1.1//EN" "http://www.w3.org/Graphics/SVG/1.1/DTD/svg11.dtd"><svg t="1635317567290" class="icon" viewBox="0 0 1024 1024" version="1.1" xmlns="http://www.w3.org/2000/svg" p-id="24306" xmlns:xlink="http://www.w3.org/1999/xlink" width="64" height="64"><defs><style type="text/css"></style></defs><path d="M509.7 929.1c-57.5 0-113.4-11.3-166-33.5-50.8-21.5-96.4-52.2-135.5-91.4s-69.9-84.7-91.4-135.5c-22.2-52.6-33.5-108.4-33.5-166s11.3-113.4 33.5-166c21.5-50.8 52.2-96.4 91.4-135.5 39.1-39.1 84.7-69.9 135.5-91.4 52.6-22.2 108.4-33.5 166-33.5 57.5 0 113.4 11.3 166 33.5 50.8 21.5 96.4 52.2 135.5 91.4 39.1 39.1 69.9 84.7 91.4 135.5 22.2 52.6 33.5 108.4 33.5 166s-11.3 113.4-33.5 166c-21.5 50.8-52.2 96.4-91.4 135.5s-84.7 69.9-135.5 91.4c-52.6 22.2-108.5 33.5-166 33.5z m0-807.5c-210.2 0-381.1 171-381.1 381.1s171 381.1 381.1 381.1 381.1-171 381.1-381.1-170.9-381.1-381.1-381.1z" fill="#444444" p-id="24307"></path><path d="M509.7 510.8m-248.7 0a248.7 248.7 0 1 0 497.4 0 248.7 248.7 0 1 0-497.4 0Z" fill="#FEE632" p-id="24308"></path><path d="M490.5 559.6c-12.4 0-22.6-10.2-22.6-22.6V323.8c0-12.4 10.2-22.6 22.6-22.6 12.4 0 22.6 10.2 22.6 22.6V537c0 12.4-10.2 22.6-22.6 22.6z" fill="#444444" p-id="24309"></path><path d="M644.2 671.4c-8.8 8.8-23.2 8.8-32 0L461.5 520.7c-8.8-8.8-8.8-23.2 0-32s23.2-8.8 32 0l150.7 150.7c8.8 8.9 8.8 23.2 0 32z" fill="#444444" p-id="24310"></path></svg>