<?xml version="1.0" standalone="no"?><!DOCTYPE svg PUBLIC "-//W3C//DTD SVG 1.1//EN" "http://www.w3.org/Graphics/SVG/1.1/DTD/svg11.dtd"><svg t="1629362072937" class="icon" viewBox="0 0 1024 1024" version="1.1" xmlns="http://www.w3.org/2000/svg" p-id="8981" xmlns:xlink="http://www.w3.org/1999/xlink" width="64" height="64"><defs><style type="text/css"></style></defs><path d="M511.63136 808.96h-0.7168c-122.88-0.36864-227.10272-38.62528-308.87936-102.07232L81.16736 769.536l-29.06624-48.36864 104.65792-54.24128a522.48576 522.48576 0 0 1-105.02144-152.11008h-0.45056a0.08192 0.08192 0 0 1-0.08704-0.08192C129.85344 342.97344 290.95936 220.16 512.35328 220.16h0.71168c122.88 0.37376 227.0464 38.60992 308.81792 102.02624l120.9344-62.67904 29.07136 48.36864-104.71424 54.272a522.48064 522.48064 0 0 1 105.06752 152.15616h0.45056l0.10752 0.09728C894.12608 686.1568 733.02016 808.96 511.63136 808.96z m0.45568-491.05408c-116.99712 0-211.85536 88.064-211.85536 196.6592A183.808 183.808 0 0 0 314.368 585.216l76.76416-39.78752a108.45184 108.45184 0 0 1-4.608-30.87872c0-64.3328 56.25344-116.46464 125.44-116.46464a129.59232 129.59232 0 0 1 91.71456 37.16608l76.88704-39.84896a217.43616 217.43616 0 0 0-168.48384-77.4912zM632.832 483.61472a108.544 108.544 0 0 1 4.608 30.95552c0 64.32256-56.1664 116.4544-125.44 116.4544a129.59232 129.59232 0 0 1-91.76576-37.21728l-76.8 39.78752a217.37472 217.37472 0 0 0 168.63232 77.62944c117.00224 0 211.85536-88.064 211.85536-196.65408a183.74144 183.74144 0 0 0-14.21312-70.8096z" p-id="8982" fill="#ffffff"></path></svg>