<?xml version="1.0" standalone="no"?><!DOCTYPE svg PUBLIC "-//W3C//DTD SVG 1.1//EN" "http://www.w3.org/Graphics/SVG/1.1/DTD/svg11.dtd"><svg t="1630995239438" class="icon" viewBox="0 0 1024 1024" version="1.1" xmlns="http://www.w3.org/2000/svg" p-id="4643" xmlns:xlink="http://www.w3.org/1999/xlink" width="64" height="64"><defs><style type="text/css"></style></defs><path d="M500.192607 614.373535c-34.105608 0-51.197795 30.718677-51.197794 76.796692 0 51.197795 17.092187 76.796692 51.197794 76.796691 34.105608 0 51.197795-25.598897 51.197795-76.796691-4.253355-46.156781-17.092187-71.676912-51.197795-76.796692z" fill="#FFAE2E" p-id="4644"></path><path d="M695.453119 187.620226c23.157156 56.317574 27.804341 140.675786-18.509972 187.620225C598.17731 65.690709 398.89974 0 398.89974 0c23.235922 159.500822-83.334256 333.021962-189.825669 464.324614-4.72595-65.611943-9.294369-107.909198-41.745894-168.873956-9.294369 117.361098-92.628625 211.092445-120.432966 323.727593-18.509972 98.457297-4.647184 187.54146 64.745519 267.331253 111.217363 107.909198 398.476373 243.859034 690.303802 4.72595 268.749039-276.783154-41.588362-656.749555-106.491413-703.615228z m-333.573323 619.099485h-50.961497V717.635548H218.210908v89.084163h-50.961497V586.254131h50.961497v89.162928h97.27581V586.254131h51.040263v220.544345h-4.725951z m134.37452 4.72595c-69.471469-4.72595-106.570179-42.218489-111.217363-112.635148 4.72595-74.985078 41.745894-112.556382 111.217363-117.203567 69.471469 4.72595 101.922994 42.218489 106.570178 117.282333 0 70.259127-37.019944 107.909198-106.570178 112.556382z m250.239066-182.973041v182.973041h-51.040263V628.47262h-69.392703v-42.218489h189.825669v42.218489h-69.392703z" fill="#FFAE2E" p-id="4645"></path></svg>