<?xml version="1.0" standalone="no"?><!DOCTYPE svg PUBLIC "-//W3C//DTD SVG 1.1//EN" "http://www.w3.org/Graphics/SVG/1.1/DTD/svg11.dtd"><svg t="1631067458513" class="icon" viewBox="0 0 1024 1024" version="1.1" xmlns="http://www.w3.org/2000/svg" p-id="8018" xmlns:xlink="http://www.w3.org/1999/xlink" width="64" height="64"><defs><style type="text/css"></style></defs><path d="M734.72 356.352l-66.56 66.56s0-266.752-222.72-355.328c0 0 10.752 214.016-133.632 333.312-111.616 89.088-334.336 355.328 111.104 555.52 0 0-222.72-244.736 67.072-422.4 0 0-22.528 89.088 89.088 177.664s0 244.736 0 244.736 534.016-133.12 155.648-600.064z" fill="#FE5F5E" p-id="8019"></path><path d="M231.936 82.432c44.544 148.992 19.456 278.528-75.776 389.12-1.536-3.072 222.208-106.496 222.208-285.696 3.584-60.416-45.056-94.72-146.432-103.424z" fill="#FF9D9D" p-id="8020"></path></svg>