<?xml version="1.0" standalone="no"?><!DOCTYPE svg PUBLIC "-//W3C//DTD SVG 1.1//EN" "http://www.w3.org/Graphics/SVG/1.1/DTD/svg11.dtd"><svg t="1629861913697" class="icon" viewBox="0 0 1024 1024" version="1.1" xmlns="http://www.w3.org/2000/svg" p-id="39585" xmlns:xlink="http://www.w3.org/1999/xlink" width="64" height="64"><defs><style type="text/css"></style></defs><path d="M272.79 1010.48L243.9 877.45a30.012 30.012 0 0 0-25.05-14.54L89.02 903.87c-10.65-0.23-17.15-11.81-11.8-21.02l229.64-395.82c8.31-14.33 26.67-19.21 41-10.89l167.78 97.34c14.33 8.31 19.21 26.67 10.89 41L296.9 1010.3c-5.35 9.21-18.62 9.31-24.11 0.18z" fill="#EA2F2F" p-id="39586"></path><path d="M733.49 1010.48l28.89-133.03a30.012 30.012 0 0 1 25.05-14.54l129.83 40.95c10.65-0.23 17.15-11.81 11.8-21.02L699.43 487.03c-8.31-14.33-26.67-19.21-41-10.89l-167.78 97.34c-14.33 8.31-19.21 26.67-10.89 41L709.4 1010.3c5.33 9.21 18.6 9.31 24.09 0.18z" fill="#EA2F2F" p-id="39587"></path><path d="M492.87 36.29L199.06 177.78a30.948 30.948 0 0 0-16.74 20.99L109.75 516.7c-2.09 9.18 0.1 18.81 5.97 26.17l203.32 254.96a30.934 30.934 0 0 0 24.18 11.65h326.11c9.41 0 18.31-4.29 24.18-11.65l203.32-254.96a30.91 30.91 0 0 0 5.97-26.17l-72.57-317.93a30.916 30.916 0 0 0-16.74-20.99L519.71 36.29a30.89 30.89 0 0 0-26.84 0z" fill="#FCD842" p-id="39588"></path><path d="M501.07 444.54m-290.06 0a290.06 290.06 0 1 0 580.12 0 290.06 290.06 0 1 0-580.12 0Z" fill="#FFC00E" p-id="39589"></path><path d="M543.62 284.3v320.49H491.1v-257.2c-19.46 17.66-43.84 30.68-73.17 39.05v-52.07c14.06-3.59 29.47-9.87 46.23-18.85 15.86-9.57 29.18-20.05 39.95-31.42h39.51z" fill="#FFFFFF" p-id="39590"></path></svg>