<?xml version="1.0" standalone="no"?><!DOCTYPE svg PUBLIC "-//W3C//DTD SVG 1.1//EN" "http://www.w3.org/Graphics/SVG/1.1/DTD/svg11.dtd"><svg t="1629861956722" class="icon" viewBox="0 0 1024 1024" version="1.1" xmlns="http://www.w3.org/2000/svg" p-id="40647" xmlns:xlink="http://www.w3.org/1999/xlink" width="64" height="64"><defs><style type="text/css"></style></defs><path d="M728.802233 855.016186l153.195162 83.06307-146.932093-409.076093a43.674791 43.674791 0 0 0-51.342883-25.48093l-146.932093 51.342883c-19.194047 6.26307-25.48093 25.457116-19.194047 50.938047l147.33693 409.076093 63.869024-159.86307z m-447.488 0l63.869023 159.86307 146.932093-409.076093c5.882047-9.025488 7.04893-20.384744 3.524465-30.577116a34.387349 34.387349 0 0 0-22.718512-20.765768l-146.932093-57.605953a36.435349 36.435349 0 0 0-27.838511 3.524465 36.387721 36.387721 0 0 0-16.836465 21.956465l-146.932093 409.48093 146.932093-76.8z" fill="#FF3645" p-id="40648"></path><path d="M505.046326 784.479256l-157.124466 10.573395c-17.622326 1.190698-34.482605-6.667907-44.293953-21.146791l-86.206512-123.832558-108.115348-113.640186a49.485395 49.485395 0 0 1-11.764094-48.199442l43.103256-151.647255 21.551628-149.670698A49.914047 49.914047 0 0 1 194.32186 147.33693l144.574512-53.676651 140.288-86.206512a50.05693 50.05693 0 0 1 51.723907-0.404837l133.620093 80.324465 144.598326 53.700465a49.914047 49.914047 0 0 1 32.148837 39.554977l21.527814 149.694512 43.103256 151.647256c4.715163 16.836465 0.404837 35.244651-11.764093 48.199442l-108.139163 113.640186-102.28093 146.932093a1601.702698 1601.702698 0 0 1-178.676093-6.26307z" fill="#EBAD80" p-id="40649"></path><path d="M503.474605 682.198326c148.122791 0 268.430884-120.284279 268.430883-268.40707 0-148.122791-120.308093-268.40707-268.430883-268.40707-148.122791 0-268.383256 120.284279-268.383256 268.383256a265.287442 265.287442 0 0 0 77.966884 190.464 265.287442 265.287442 0 0 0 190.416372 77.966884z" fill="#C7936D" p-id="40650"></path><path d="M397.216744 557.437023v-64.39293h59.439628v15.24093h85.349209v-73.156465h-101.733209v-49.533023h101.733209V325.774884h-85.349209v11.430697H397.216744V276.24186h205.752558v121.546419l-18.289116 11.811721 18.289116 21.718326v126.118697z" fill="#FFFFFF" p-id="40651"></path></svg>