<?xml version="1.0" standalone="no"?><!DOCTYPE svg PUBLIC "-//W3C//DTD SVG 1.1//EN" "http://www.w3.org/Graphics/SVG/1.1/DTD/svg11.dtd"><svg t="1629894945808" class="icon" viewBox="0 0 1024 1024" version="1.1" xmlns="http://www.w3.org/2000/svg" p-id="4994" xmlns:xlink="http://www.w3.org/1999/xlink" width="64" height="64"><defs><style type="text/css"></style></defs><path d="M74.24 512c2.56 243.2 199.68 437.76 442.88 435.2 240.64-2.56 432.64-194.56 435.2-435.2-2.56-243.2-199.68-437.76-442.88-435.2-240.64 2.56-435.2 194.56-435.2 435.2z" fill="#FDD356" p-id="4995"></path><path d="M512 0C230.4 0 0 230.4 0 512s230.4 512 512 512 512-230.4 512-512S793.6 0 512 0z m0 949.76c-243.2 0-437.76-197.12-437.76-437.76 0-243.2 197.12-437.76 437.76-437.76 243.2 0 437.76 197.12 437.76 437.76 0 243.2-194.56 437.76-437.76 437.76z" fill="#FFECA4" p-id="4996"></path><path d="M512 145.92c227.84 0 417.28 174.08 437.76 401.92 20.48-240.64-158.72-453.12-401.92-473.6S94.72 232.96 74.24 476.16c-2.56 23.04-2.56 48.64 0 71.68 20.48-227.84 209.92-401.92 437.76-401.92z" fill="#FFAD16" p-id="4997"></path><path d="M481.28 312.32c5.12-17.92 23.04-25.6 40.96-20.48 10.24 2.56 17.92 10.24 20.48 20.48l35.84 107.52h115.2c17.92 0 33.28 15.36 33.28 30.72 0 10.24-5.12 20.48-12.8 25.6l-92.16 66.56 35.84 107.52c5.12 17.92-2.56 35.84-20.48 40.96-10.24 2.56-20.48 2.56-28.16-5.12l-92.16-66.56-92.16 66.56c-15.36 10.24-33.28 7.68-43.52-7.68-5.12-7.68-7.68-17.92-5.12-28.16l35.84-107.52-92.16-66.56c-15.36-10.24-17.92-30.72-7.68-43.52 5.12-7.68 15.36-12.8 25.6-12.8h115.2l28.16-107.52z" fill="#FFECA4" p-id="4998"></path></svg>