<?xml version="1.0" standalone="no"?><!DOCTYPE svg PUBLIC "-//W3C//DTD SVG 1.1//EN" "http://www.w3.org/Graphics/SVG/1.1/DTD/svg11.dtd"><svg t="1635317024260" class="icon" viewBox="0 0 1024 1024" version="1.1" xmlns="http://www.w3.org/2000/svg" p-id="18451" xmlns:xlink="http://www.w3.org/1999/xlink" width="64" height="64"><defs><style type="text/css"></style></defs><path d="M399.928889 463.36m-399.928889 0a399.928889 399.928889 0 1 0 799.857778 0 399.928889 399.928889 0 1 0-799.857778 0Z" fill="#FFD1D0" p-id="18452"></path><path d="M529.265778 710.570667a27.022222 27.022222 0 0 0-15.502222-40.021334c-240.867556-70.172444-299.605333-200.618667-185.400889-408.462222a27.022222 27.022222 0 0 0 3.100444-9.415111 37.632 37.632 0 0 0-0.768-14.193778l-7.054222-32.711111a350.321778 350.321778 0 0 1-6.4-42.268444c-1.991111-25.173333 1.024-42.752 7.537778-50.005334 2.730667-3.072 11.377778-3.754667 30.037333 2.730667 24.803556 8.618667 58.652444 28.302222 100.807111 58.993778a27.022222 27.022222 0 0 0 23.808 4.010666c88.263111-26.993778 177.777778-27.192889 269.169778-0.568888 1.507556 0.568889 3.299556 0.910222 5.831111 1.450666 11.605333 1.763556 20.48-2.986667 25.713778-10.268444l4.437333-3.242667c7.68-5.404444 18.033778-12.032 28.984889-18.403555l11.178667-6.257778 11.406222-5.944889c33.649778-16.810667 61.013333-24.462222 65.365333-20.508445 13.368889 12.088889 13.368889 54.499556-7.793778 125.895112a27.022222 27.022222 0 0 0 2.474667 21.105777c118.044444 205.795556 61.127111 335.815111-180.110222 407.523556-15.36 2.901333-22.983111 16.924444-21.674667 30.037333 0.398222 4.323556 1.536 7.651556 3.242667 11.377778 1.308444 2.844444 3.128889 6.058667 5.489778 9.927111l2.56 4.039111c5.660444 8.760889 14.222222 20.935111 25.713777 36.693334v196.352a27.022222 27.022222 0 1 0 54.044445 0V753.208889a27.022222 27.022222 0 0 0-5.290667-16.042667l-8.021333-10.951111-10.126222-14.136889c244.906667-83.399111 309.816889-243.854222 186.709333-466.432 23.495111-83.996444 22.101333-140.344889-10.979556-170.268444-32.199111-29.098667-84.679111-12.686222-151.381333 26.112-9.813333 5.688889-19.228444 11.605333-27.221333 17.009778l-7.196445 4.977777c-92.956444-25.002667-184.888889-24.917333-275.342222 0.284445C383.004444 57.344 320.398222 37.518222 284.586667 77.368889c-19.057778 21.191111-24.291556 51.768889-21.219556 90.396444a369.777778 369.777778 0 0 0 5.290667 38.4l5.176889 25.031111 2.844444 12.856889c-119.864889 224.625778-54.471111 385.422222 188.444445 467.825778l-16.668445 27.249778a27.022222 27.022222 0 0 0-3.953778 14.08v205.226667a27.022222 27.022222 0 1 0 54.044445 0v-197.603556l30.72-50.261333zM781.084444 138.808889l3.271112 9.045333c1.592889 5.12 1.251556 6.826667 0.056888 12.373334l-2.702222 6.257777a14.108444 14.108444 0 0 1-1.251555 2.275556l-2.275556 2.645333 1.962667-1.536c8.476444-11.832889 7.452444-30.435556-6.741334-39.168l-3.242666-1.706666c2.56 1.422222 5.12 3.982222 10.922666 9.813333z m-55.466666 584.448l-2.844445 0.284444a27.022222 27.022222 0 0 0 2.844445-0.284444z" fill="#EA221B" p-id="18453"></path><path d="M66.901333 698.993778c35.072 13.767111 66.844444 40.96 95.374223 82.261333 38.912 56.348444 114.119111 71.566222 221.383111 50.403556a27.022222 27.022222 0 1 0-10.467556-53.020445c-88.462222 17.464889-142.563556 6.513778-166.456889-28.103111-34.275556-49.664-74.296889-83.854222-120.035555-101.831111a27.022222 27.022222 0 0 0-19.797334 50.289778z" fill="#EA221B" p-id="18454"></path></svg>