<?xml version="1.0" standalone="no"?><!DOCTYPE svg PUBLIC "-//W3C//DTD SVG 1.1//EN" "http://www.w3.org/Graphics/SVG/1.1/DTD/svg11.dtd"><svg t="1630984518784" class="icon" viewBox="0 0 1024 1024" version="1.1" xmlns="http://www.w3.org/2000/svg" p-id="3822" xmlns:xlink="http://www.w3.org/1999/xlink" width="64" height="64"><defs><style type="text/css"></style></defs><path d="M384 298.666667v-8.533334c0-21.333333 4.266667-34.133333 8.533333-42.666666 4.266667-8.533333 12.8-17.066667 25.6-25.6 8.533333-4.266667 21.333333-8.533333 42.666667-8.533334h102.4c21.333333 0 34.133333 4.266667 42.666667 8.533334 8.533333 4.266667 17.066667 12.8 25.6 25.6 4.266667 8.533333 8.533333 21.333333 8.533333 42.666666V298.666667h149.333333c12.8 0 21.333333 8.533333 21.333334 21.333333s-8.533333 21.333333-21.333334 21.333333h-554.666666c-12.8 0-21.333333-8.533333-21.333334-21.333333s8.533333-21.333333 21.333334-21.333333H384z m42.666667 0h170.666666v-8.533334c0-12.8 0-17.066667-4.266666-21.333333 0-4.266667-4.266667-4.266667-8.533334-8.533333 0-4.266667-8.533333-4.266667-21.333333-4.266667h-102.4c-12.8 0-17.066667 0-21.333333 4.266667-4.266667 0-4.266667 4.266667-8.533334 8.533333-4.266667 0-4.266667 8.533333-4.266666 21.333333V298.666667zM341.333333 405.333333V682.666667c0 34.133333 0 46.933333 4.266667 55.466666 4.266667 8.533333 8.533333 12.8 12.8 17.066667 12.8 12.8 21.333333 12.8 51.2 12.8h209.066667c29.866667 0 38.4 0 46.933333-8.533333 8.533333-4.266667 12.8-8.533333 12.8-17.066667 4.266667-12.8 4.266667-21.333333 4.266667-59.733333V405.333333c0-12.8 8.533333-21.333333 21.333333-21.333333s21.333333 8.533333 21.333333 21.333333v285.866667c0 42.666667-4.266667 55.466667-12.8 72.533333-8.533333 17.066667-17.066667 25.6-34.133333 34.133334-12.8 8.533333-25.6 12.8-64 12.8H409.6c-38.4 0-51.2-4.266667-64-12.8s-25.6-21.333333-34.133333-34.133334c-8.533333-17.066667-12.8-34.133333-12.8-72.533333V405.333333c0-12.8 8.533333-21.333333 21.333333-21.333333s21.333333 8.533333 21.333333 21.333333z m106.666667 21.333334c12.8 0 21.333333 8.533333 21.333333 21.333333v213.333333c0 12.8-8.533333 21.333333-21.333333 21.333334s-21.333333-8.533333-21.333333-21.333334v-213.333333c0-12.8 8.533333-21.333333 21.333333-21.333333z m128 0c12.8 0 21.333333 8.533333 21.333333 21.333333v213.333333c0 12.8-8.533333 21.333333-21.333333 21.333334s-21.333333-8.533333-21.333333-21.333334v-213.333333c0-12.8 8.533333-21.333333 21.333333-21.333333z" p-id="3823" fill="#8a8a8a"></path></svg>