<?xml version="1.0" standalone="no"?><!DOCTYPE svg PUBLIC "-//W3C//DTD SVG 1.1//EN" "http://www.w3.org/Graphics/SVG/1.1/DTD/svg11.dtd"><svg t="1630058133551" class="icon" viewBox="0 0 1024 1024" version="1.1" xmlns="http://www.w3.org/2000/svg" p-id="4263" xmlns:xlink="http://www.w3.org/1999/xlink" width="64" height="64"><defs><style type="text/css"></style></defs><path d="M830.348911 792.920585l-120.523048-121.785993c35.282025-43.793851 56.526312-99.362018 56.526312-159.859198 0-140.762623-114.463735-255.274336-255.172736-255.274336-140.714645 0-255.176969 114.511713-255.176969 255.274336 0 140.761212 114.462324 255.278569 255.176969 255.278569 61.20838 0 117.427069-21.701486 161.438231-57.78079l120.11947 121.382415c5.187247 5.225347 11.988805 7.845781 18.805885 7.845781 6.736647 0 13.453539-2.549879 18.619619-7.658103C840.547015 820.054851 840.618982 803.299311 830.348911 792.920585L830.348911 792.920585zM308.907868 511.275394c0-111.573778 90.731659-202.346359 202.270159-202.346359 111.532856 0 202.265926 90.77117 202.265926 202.346359s-90.73307 202.349181-202.265926 202.349181C399.640938 713.624575 308.907868 622.849172 308.907868 511.275394L308.907868 511.275394zM308.907868 511.275394" p-id="4264" fill="#515151"></path></svg>