<?xml version="1.0" standalone="no"?><!DOCTYPE svg PUBLIC "-//W3C//DTD SVG 1.1//EN" "http://www.w3.org/Graphics/SVG/1.1/DTD/svg11.dtd"><svg t="1629702169658" class="icon" viewBox="0 0 1024 1024" version="1.1" xmlns="http://www.w3.org/2000/svg" p-id="23541" xmlns:xlink="http://www.w3.org/1999/xlink" width="64" height="64"><defs><style type="text/css"></style></defs><path d="M486.4 102.4a332.8 332.8 0 1 1 0 665.6 332.8 332.8 0 0 1 0-665.6z m0 102.4a230.4 230.4 0 1 0 0 460.8 230.4 230.4 0 0 0 0-460.8z" fill="#979797" p-id="23542"></path><path d="M632.7296 626.3296a51.2 51.2 0 0 1 67.6864 1.7408l4.4544 4.6592 167.6288 200.3456a51.2 51.2 0 0 1-74.0864 70.4l-4.4544-4.6592-167.6288-200.3456a51.2 51.2 0 0 1 6.4-72.1408z" fill="#979797" p-id="23543"></path></svg>