<?xml version="1.0" standalone="no"?><!DOCTYPE svg PUBLIC "-//W3C//DTD SVG 1.1//EN" "http://www.w3.org/Graphics/SVG/1.1/DTD/svg11.dtd"><svg t="1629450146212" class="icon" viewBox="0 0 1024 1024" version="1.1" xmlns="http://www.w3.org/2000/svg" p-id="20684" xmlns:xlink="http://www.w3.org/1999/xlink" width="64" height="64"><defs><style type="text/css"></style></defs><path d="M512 511.997m-448 0a448 448 0 1 0 896 0 448 448 0 1 0-896 0Z" fill="#93B5FF" p-id="20685"></path><path d="M512.012 960.003a445.7 445.7 0 0 1-218.788-56.965 450.1 450.1 0 0 1-61.211-41.294V540.003a282.071 282.071 0 0 1 5.689-56.43 278.466 278.466 0 0 1 42.131-100.12A280.815 280.815 0 0 1 403.024 282.007a278.588 278.588 0 0 1 52.559-16.315 282.732 282.732 0 0 1 112.859 0 278.47 278.47 0 0 1 100.121 42.131 280.817 280.817 0 0 1 101.446 123.192 278.589 278.589 0 0 1 16.315 52.558 282.058 282.058 0 0 1 5.689 56.43v321.741a450.1 450.1 0 0 1-61.208 41.294 445.705 445.705 0 0 1-218.792 56.965zM349.54 533.288v8.824c0 90.454 73.356 164.043 163.522 164.043s163.522-73.589 163.522-164.043v-8.824z m247.62-134.453a35.819 35.819 0 1 0 35.819 35.82 35.861 35.861 0 0 0-35.82-35.819z m-166.637 0a35.819 35.819 0 1 0 35.818 35.82 35.861 35.861 0 0 0-35.817-35.819z" fill="#FFFFFF" p-id="20686"></path></svg>